HIERARCHY
ROOT Hips
{
    OFFSET 0.000000 0.000000 0.000000
    CHANNELS 6 Xposition Yposition Zposition Zrotation Xrotation Yrotation
    JOINT Spine
    {
        OFFSET -0.000000 14.517291 0.000000
        CHANNELS 3 Zrotation Xrotation Yrotation
        JOINT Spine1
        {
            OFFSET -0.000000 37.558300 0.000000
            CHANNELS 3 Zrotation Xrotation Yrotation
            JOINT Neck
            {
                OFFSET -0.000000 37.404057 3.400369
                CHANNELS 3 Zrotation Xrotation Yrotation
                JOINT Head
                {
                    OFFSET -0.000000 24.785618 -3.540803
                    CHANNELS 3 Zrotation Xrotation Yrotation
                    End Site
                    {
                        OFFSET -0.000000 35.408028 0.000000
                    }
                }
            }
            JOINT LeftShoulder
            {
                OFFSET 6.992933 33.973492 -0.192664
                CHANNELS 3 Zrotation Xrotation Yrotation
                JOINT LeftArm
                {
                    OFFSET 21.527611 0.000000 0.000000
                    CHANNELS 3 Zrotation Xrotation Yrotation
                    JOINT LeftForeArm
                    {
                        OFFSET 56.353916 0.000000 0.000000
                        CHANNELS 3 Zrotation Xrotation Yrotation
                        JOINT LeftHand
                        {
                            OFFSET 47.774071 0.000000 0.000000
                            CHANNELS 3 Zrotation Xrotation Yrotation
                            End Site
                            {
                                OFFSET 26.556021 0.000000 0.000000
                            }
                        }
                    }
                }
            }
            JOINT RightShoulder
            {
                OFFSET -7.065357 33.973492 -0.192664
                CHANNELS 3 Zrotation Xrotation Yrotation
                JOINT RightArm
                {
                    OFFSET -21.527611 0.000000 0.000000
                    CHANNELS 3 Zrotation Xrotation Yrotation
                    JOINT RightForeArm
                    {
                        OFFSET -56.353916 0.000000 0.000000
                        CHANNELS 3 Zrotation Xrotation Yrotation
                        JOINT RightHand
                        {
                            OFFSET -47.774071 0.000000 0.000000
                            CHANNELS 3 Zrotation Xrotation Yrotation
                            End Site
                            {
                                OFFSET -26.556021 0.000000 0.000000
                            }
                        }
                    }
                }
            }
        }
    }
    JOINT LeftUpLeg
    {
        OFFSET 17.704014 0.000000 0.000000
        CHANNELS 3 Zrotation Xrotation Yrotation
        JOINT LeftLeg
        {
            OFFSET -0.000000 -81.181816 0.000000
            CHANNELS 3 Zrotation Xrotation Yrotation
            JOINT LeftFoot
            {
                OFFSET -0.000000 -62.821102 0.000000
                CHANNELS 3 Zrotation Xrotation Yrotation
                JOINT LeftToeBase
                {
                    OFFSET -0.000000 -11.507608 26.556021
                    CHANNELS 3 Zrotation Xrotation Yrotation
                    End Site
                    {
                        OFFSET -0.000000 0.000000 7.081605
                    }
                }
            }
        }
    }
    JOINT RightUpLeg
    {
        OFFSET -17.704014 0.000000 0.000000
        CHANNELS 3 Zrotation Xrotation Yrotation
        JOINT RightLeg
        {
            OFFSET -0.000000 -81.181816 0.000000
            CHANNELS 3 Zrotation Xrotation Yrotation
            JOINT RightFoot
            {
                OFFSET -0.000000 -62.821102 0.000000
                CHANNELS 3 Zrotation Xrotation Yrotation
                JOINT RightToeBase
                {
                    OFFSET -0.000000 -11.507608 26.556021
                    CHANNELS 3 Zrotation Xrotation Yrotation
                    End Site
                    {
                        OFFSET -0.000000 0.000000 7.081605
                    }
                }
            }
        }
    }
}
MOTION
Frames:    8
Frame Time:    0.008333
21.979553    156.917328    -95.182549    -6.082115    20.093906    22.562941    7.053788    10.415926    -0.689403    -7.558854    9.720785    0.639138    9.625777    22.099241    -7.054936    9.316108    -31.993917    -2.946616    11.820648    -5.689266    -14.307712    -24.457243    -44.124828    -22.821911    -29.786604    -35.126446    -101.715332    -48.696316    -45.248024    -51.767628    -11.084140    4.579272    -2.868133    15.868061    18.264931    8.241268    10.063767    7.931226    -0.621154    17.855740    11.151531    20.223537    8.684625    -21.015459    10.577013    -12.134386    32.653866    -11.015163    1.614659    -26.271479    42.592445    0.000000    0.000000    0.000000    -15.832808    -54.652405    -8.276036    12.777650    30.502472    -10.697326    -2.293229    14.625945    -10.442309    0.000000    0.000000    0.000000    
22.002544    156.899979    -95.184837    -6.071281    20.112526    22.532063    7.070299    10.422151    -0.691622    -7.587279    9.725106    0.641171    9.582641    22.105204    -7.035705    9.400835    -31.970421    -2.895277    11.821689    -5.678545    -14.335104    -24.485634    -44.062027    -22.858391    -29.775820    -35.193569    -101.743797    -48.661854    -45.326473    -51.763153    -11.074068    4.566268    -2.870917    15.864666    18.317095    8.238997    10.022483    7.906578    -0.608098    17.855686    11.127451    20.234182    8.676745    -21.027681    10.588821    -12.155672    32.677032    -10.995951    1.633603    -26.291340    42.589935    0.000000    0.000000    0.000000    -15.853252    -54.685425    -8.331799    12.770107    30.541166    -10.693071    -2.316982    14.613871    -10.395884    0.000000    0.000000    0.000000    
22.022329    156.881088    -95.180916    -6.058608    20.126314    22.507282    7.079904    10.427076    -0.696773    -7.597868    9.728772    0.637965    9.550264    22.102770    -7.020738    9.443171    -31.928839    -2.867601    11.808563    -5.652582    -14.349464    -24.529013    -43.992405    -22.935173    -29.716845    -35.301083    -101.732628    -48.624058    -45.369175    -51.761078    -11.087733    4.568675    -2.876192    15.860390    18.299934    8.257855    10.039305    7.943877    -0.614661    17.986572    11.210332    20.369917    8.670019    -21.030762    10.569970    -12.190847    32.689625    -10.977635    1.668609    -26.312073    42.615898    0.000000    0.000000    0.000000    -15.872280    -54.707756    -8.374612    12.760590    30.580208    -10.664627    -2.319244    14.577594    -10.366628    0.000000    0.000000    0.000000    
22.037476    156.863708    -95.180786    -6.045148    20.135916    22.473284    7.082529    10.445206    -0.701977    -7.599931    9.714288    0.634376    9.500599    22.129196    -7.005172    9.507627    -31.912167    -2.826437    11.790052    -5.640808    -14.362208    -24.534227    -43.864807    -22.960138    -29.652504    -35.432247    -101.728615    -48.692043    -45.355034    -51.831993    -11.103981    4.563315    -2.876339    15.858966    18.309216    8.277806    10.036577    7.905457    -0.610322    17.828066    11.126240    20.262878    8.663264    -21.036007    10.565133    -12.213305    32.714710    -10.960953    1.692067    -26.340216    42.638584    0.000000    0.000000    0.000000    -15.865203    -54.728313    -8.350111    12.764915    30.595596    -10.672530    -2.321936    14.564541    -10.356448    0.000000    0.000000    0.000000    
22.058216    156.845749    -95.181953    -6.031294    20.147924    22.450768    7.094197    10.445930    -0.720175    -7.620166    9.710992    0.638539    9.509661    22.146914    -6.996197    9.504547    -31.893841    -2.817697    11.783844    -5.622263    -14.381683    -24.565500    -43.859623    -23.013723    -29.682392    -35.430271    -101.702415    -48.715149    -45.363117    -51.825722    -11.102630    4.552547    -2.866484    15.858114    18.349323    8.280210    10.021531    7.909162    -0.594298    17.967318    11.176381    20.405630    8.647738    -21.043001    10.547328    -12.232854    32.735035    -10.943831    1.711313    -26.368711    42.649738    0.000000    0.000000    0.000000    -15.875805    -54.751450    -8.364035    12.755897    30.630543    -10.660857    -2.339181    14.532008    -10.339551    0.000000    0.000000    0.000000    
22.080542    156.828522    -95.177856    -6.015382    20.156036    22.421665    7.101636    10.446229    -0.726621    -7.631035    9.709641    0.633130    9.514353    22.171989    -6.979922    9.486142    -31.893024    -2.805852    11.765532    -5.618065    -14.394199    -24.601650    -43.831173    -23.069115    -29.695452    -35.424095    -101.680344    -48.697014    -45.379810    -51.796738    -11.108566    4.544589    -2.874614    15.864268    18.373692    8.309192    9.989909    7.886771    -0.586008    17.978029    11.160283    20.436895    8.630724    -21.044798    10.523944    -12.254183    32.755081    -10.917216    1.743256    -26.385851    42.670811    0.000000    0.000000    0.000000    -15.873581    -54.767826    -8.339561    12.763843    30.653982    -10.663887    -2.370133    14.510641    -10.341341    0.000000    0.000000    0.000000    
22.096794    156.814926    -95.175018    -6.004712    20.165697    22.392988    7.104514    10.449869    -0.735473    -7.650780    9.695319    0.634461    9.571350    22.162998    -6.960262    9.414543    -31.857286    -2.815438    11.774605    -5.607528    -14.411250    -24.649002    -43.829220    -23.119102    -29.712364    -35.388088    -101.660568    -48.666424    -45.384190    -51.760410    -11.080292    4.534753    -2.878496    15.853543    18.394522    8.331685    9.959092    7.867601    -0.572617    18.006277    11.145393    20.438560    8.618190    -21.047277    10.498076    -12.269214    32.764381    -10.880287    1.764392    -26.398127    42.661160    0.000000    0.000000    0.000000    -15.856431    -54.785374    -8.298199    12.765490    30.664930    -10.668455    -2.379226    14.486151    -10.347311    0.000000    0.000000    0.000000    
22.121223    156.801239    -95.168213    -5.992268    20.164871    22.369865    7.116431    10.450162    -0.747681    -7.662875    9.689333    0.630104    9.576263    22.159115    -6.936536    9.394220    -31.827999    -2.801572    11.758130    -5.594628    -14.438066    -24.661489    -43.815460    -23.140528    -29.711424    -35.374847    -101.622742    -48.662685    -45.355839    -51.755737    -11.073640    4.537758    -2.880368    15.860538    18.409428    8.356553    9.912524    7.827644    -0.555155    18.071102    11.118637    20.455765    8.602253    -21.037889    10.447093    -12.302509    32.768242    -10.832510    1.794630    -26.426762    42.695404    0.000000    0.000000    0.000000    -15.849851    -54.786892    -8.257207    12.783051    30.672588    -10.667849    -2.384513    14.460117    -10.378946    0.000000    0.000000    0.000000    
